<svg width="1200" height="300" viewBox="0 0 1200 300" xmlns="http://www.w3.org/2000/svg">
  <defs>
    <radialGradient id="bg" cx="50%" cy="50%" r="70%">
      <stop offset="0%" stop-color="#0a1f3d"/>
      <stop offset="60%" stop-color="#061428"/>
      <stop offset="100%" stop-color="#020b18"/>
    </radialGradient>
    <radialGradient id="globeCore" cx="42%" cy="38%" r="55%">
      <stop offset="0%" stop-color="#5bc8ff" stop-opacity="0.95"/>
      <stop offset="45%" stop-color="#1a6aaa" stop-opacity="0.65"/>
      <stop offset="100%" stop-color="#0a2a50" stop-opacity="0.5"/>
    </radialGradient>
    <radialGradient id="halo" cx="50%" cy="50%" r="50%">
      <stop offset="0%" stop-color="#1a6aaa" stop-opacity="0.45"/>
      <stop offset="100%" stop-color="#020b18" stop-opacity="0"/>
    </radialGradient>
    <linearGradient id="saffron" x1="0%" y1="0%" x2="100%" y2="0%">
      <stop offset="0%" stop-color="#FF6B00"/>
      <stop offset="50%" stop-color="#FF9933"/>
      <stop offset="100%" stop-color="#FFC300"/>
    </linearGradient>
    <linearGradient id="accentLine" x1="0%" y1="0%" x2="100%" y2="0%">
      <stop offset="0%" stop-color="#FF6B00" stop-opacity="0"/>
      <stop offset="30%" stop-color="#FF9933" stop-opacity="0.9"/>
      <stop offset="70%" stop-color="#FFC300" stop-opacity="0.9"/>
      <stop offset="100%" stop-color="#FFC300" stop-opacity="0"/>
    </linearGradient>
  </defs>

  <rect width="1200" height="300" fill="url(#bg)" rx="12"/>

  <g stroke="#0d2a4a" stroke-width="0.4" opacity="0.5">
    <line x1="0" y1="50" x2="1200" y2="50"/>
    <line x1="0" y1="100" x2="1200" y2="100"/>
    <line x1="0" y1="150" x2="1200" y2="150"/>
    <line x1="0" y1="200" x2="1200" y2="200"/>
    <line x1="0" y1="250" x2="1200" y2="250"/>
    <line x1="100" y1="0" x2="100" y2="300"/>
    <line x1="200" y1="0" x2="200" y2="300"/>
    <line x1="300" y1="0" x2="300" y2="300"/>
    <line x1="900" y1="0" x2="900" y2="300"/>
    <line x1="1000" y1="0" x2="1000" y2="300"/>
    <line x1="1100" y1="0" x2="1100" y2="300"/>
  </g>

  <g stroke="#1a4a7a" stroke-width="1" fill="none" opacity="0.45">
    <polyline points="0,55 70,55 70,80 130,80"/>
    <polyline points="0,170 55,170 55,195 115,195 115,215 175,215"/>
    <polyline points="0,250 85,250 85,230 155,230"/>
    <polyline points="35,0 35,35 85,35"/>
    <polyline points="1200,55 1130,55 1130,80 1070,80"/>
    <polyline points="1200,170 1145,170 1145,195 1085,195 1085,215 1025,215"/>
    <polyline points="1200,250 1115,250 1115,230 1045,230"/>
    <polyline points="1165,0 1165,35 1115,35"/>
  </g>
  <g fill="#1e88c8" opacity="0.35">
    <circle cx="70" cy="55" r="2.5"/><circle cx="130" cy="80" r="2"/>
    <circle cx="55" cy="170" r="2.5"/><circle cx="115" cy="195" r="2"/>
    <circle cx="85" cy="250" r="2.5"/><circle cx="35" cy="35" r="2"/>
    <circle cx="1130" cy="55" r="2.5"/><circle cx="1070" cy="80" r="2"/>
    <circle cx="1145" cy="170" r="2.5"/><circle cx="1085" cy="195" r="2"/>
    <circle cx="1115" cy="250" r="2.5"/><circle cx="1165" cy="35" r="2"/>
  </g>

  <g font-family="'Courier New',monospace" font-size="10" fill="#1e5c8a" opacity="0.45">
    <text x="14" y="18">01101001</text>
    <text x="14" y="110">def test():</text>
    <text x="14" y="270">import ai</text>
    <text x="14" y="138">assert True</text>
    <text x="1062" y="18">11001010</text>
    <text x="1057" y="110">pytest -v</text>
    <text x="1067" y="270">git push</text>
    <text x="1055" y="138">n8n.run()</text>
  </g>

  <circle cx="600" cy="148" r="145" fill="url(#halo)" opacity="0.7"/>
  <circle cx="600" cy="148" r="100" fill="none" stroke="#2a7fbf" stroke-width="0.8" opacity="0.35"/>
  <circle cx="600" cy="148" r="82" fill="url(#globeCore)"/>

  <g stroke="#4ab8ff" stroke-width="0.6" fill="none" opacity="0.22">
    <ellipse cx="600" cy="148" rx="82" ry="22"/>
    <ellipse cx="600" cy="148" rx="82" ry="44"/>
    <ellipse cx="600" cy="148" rx="82" ry="66"/>
    <line x1="518" y1="148" x2="682" y2="148"/>
    <ellipse cx="600" cy="148" rx="28" ry="82"/>
    <ellipse cx="600" cy="148" rx="56" ry="82"/>
    <line x1="600" y1="66" x2="600" y2="230"/>
  </g>

  <g fill="#7dd8ff" opacity="0.85">
    <circle cx="570" cy="122" r="2.5"/><circle cx="598" cy="112" r="2"/>
    <circle cx="624" cy="125" r="2.5"/><circle cx="614" cy="142" r="2"/>
    <circle cx="582" cy="150" r="2.5"/><circle cx="632" cy="153" r="2"/>
    <circle cx="558" cy="138" r="2"/><circle cx="618" cy="168" r="2.5"/>
    <circle cx="592" cy="163" r="2"/><circle cx="644" cy="143" r="2"/>
  </g>
  <g stroke="#4ab8ff" stroke-width="0.5" opacity="0.28" fill="none">
    <line x1="570" y1="122" x2="598" y2="112"/>
    <line x1="598" y1="112" x2="624" y2="125"/>
    <line x1="624" y1="125" x2="614" y2="142"/>
    <line x1="614" y1="142" x2="582" y2="150"/>
    <line x1="582" y1="150" x2="558" y2="138"/>
    <line x1="558" y1="138" x2="570" y2="122"/>
    <line x1="614" y1="142" x2="632" y2="153"/>
    <line x1="632" y1="153" x2="618" y2="168"/>
    <line x1="618" y1="168" x2="592" y2="163"/>
    <line x1="592" y1="163" x2="582" y2="150"/>
    <line x1="624" y1="125" x2="644" y2="143"/>
  </g>

  <circle cx="600" cy="148" r="138" fill="none" stroke="#1a5a9a" stroke-width="0.8" stroke-dasharray="4,4" opacity="0.45"/>

  <g stroke="#2a7fbf" stroke-width="0.7" opacity="0.5">
    <line x1="600" y1="66"  x2="600" y2="10"/>
    <line x1="658" y1="74"  x2="669" y2="28"/>
    <line x1="672" y1="109" x2="719" y2="79"/>
    <line x1="682" y1="148" x2="738" y2="148"/>
    <line x1="672" y1="187" x2="719" y2="217"/>
    <line x1="658" y1="222" x2="669" y2="268"/>
    <line x1="600" y1="230" x2="600" y2="286"/>
    <line x1="542" y1="222" x2="531" y2="268"/>
    <line x1="528" y1="187" x2="481" y2="217"/>
    <line x1="518" y1="148" x2="462" y2="148"/>
    <line x1="528" y1="109" x2="481" y2="79"/>
    <line x1="542" y1="74"  x2="531" y2="28"/>
  </g>

  <g fill="#4ab8ff" opacity="0.9">
    <circle cx="600" cy="66"  r="3"/>
    <circle cx="658" cy="74"  r="3"/>
    <circle cx="672" cy="109" r="3"/>
    <circle cx="682" cy="148" r="3"/>
    <circle cx="672" cy="187" r="3"/>
    <circle cx="658" cy="222" r="3"/>
    <circle cx="600" cy="230" r="3"/>
    <circle cx="542" cy="222" r="3"/>
    <circle cx="528" cy="187" r="3"/>
    <circle cx="518" cy="148" r="3"/>
    <circle cx="528" cy="109" r="3"/>
    <circle cx="542" cy="74"  r="3"/>
  </g>

  <rect x="586" y="1"   width="28" height="28" rx="6" fill="#0b2240" stroke="#2a7fbf" stroke-width="1"/>
  <text x="600" y="20"  text-anchor="middle" font-size="15" fill="#4ab8ff" font-family="Arial">🌐</text>
  <rect x="655" y="14"  width="28" height="28" rx="6" fill="#0b2240" stroke="#2a7fbf" stroke-width="1"/>
  <text x="669" y="33"  text-anchor="middle" font-size="12" fill="#4ab8ff" font-family="'Courier New',monospace">&lt;/&gt;</text>
  <rect x="705" y="65"  width="28" height="28" rx="6" fill="#0b2240" stroke="#2a7fbf" stroke-width="1"/>
  <text x="719" y="84"  text-anchor="middle" font-size="15" fill="#4ab8ff" font-family="Arial">📱</text>
  <rect x="724" y="134" width="28" height="28" rx="6" fill="#0b2240" stroke="#2a7fbf" stroke-width="1"/>
  <text x="738" y="153" text-anchor="middle" font-size="15" fill="#4ab8ff" font-family="Arial">⚙️</text>
  <rect x="705" y="203" width="28" height="28" rx="6" fill="#0b2240" stroke="#2a7fbf" stroke-width="1"/>
  <text x="719" y="222" text-anchor="middle" font-size="15" fill="#4ab8ff" font-family="Arial">☁️</text>
  <rect x="655" y="254" width="28" height="28" rx="6" fill="#0b2240" stroke="#2a7fbf" stroke-width="1"/>
  <text x="669" y="273" text-anchor="middle" font-size="13" fill="#4ab8ff" font-family="Arial">✉</text>
  <rect x="586" y="272" width="28" height="28" rx="6" fill="#0b2240" stroke="#2a7fbf" stroke-width="1"/>
  <text x="600" y="291" text-anchor="middle" font-size="15" fill="#4ab8ff" font-family="Arial">🛒</text>
  <rect x="517" y="254" width="28" height="28" rx="6" fill="#0b2240" stroke="#2a7fbf" stroke-width="1"/>
  <text x="531" y="273" text-anchor="middle" font-size="15" fill="#4ab8ff" font-family="Arial">📄</text>
  <rect x="466" y="203" width="28" height="28" rx="6" fill="#0b2240" stroke="#2a7fbf" stroke-width="1"/>
  <text x="480" y="222" text-anchor="middle" font-size="13" fill="#4ab8ff" font-family="Arial">▶</text>
  <rect x="448" y="134" width="28" height="28" rx="6" fill="#0b2240" stroke="#2a7fbf" stroke-width="1"/>
  <text x="462" y="153" text-anchor="middle" font-size="15" fill="#4ab8ff" font-family="Arial">🖥</text>
  <rect x="466" y="65"  width="28" height="28" rx="6" fill="#0b2240" stroke="#2a7fbf" stroke-width="1"/>
  <text x="480" y="84"  text-anchor="middle" font-size="15" fill="#4ab8ff" font-family="Arial">👤</text>
  <rect x="517" y="14"  width="28" height="28" rx="6" fill="#0b2240" stroke="#2a7fbf" stroke-width="1"/>
  <text x="531" y="33"  text-anchor="middle" font-size="15" fill="#4ab8ff" font-family="Arial">📍</text>

  <text x="600" y="158"
    font-family="'Segoe UI',Arial,sans-serif"
    font-size="72" font-weight="700"
    text-anchor="middle"
    fill="url(#saffron)">Ashish Pandey</text>

  <rect x="285" y="178" width="630" height="1.5" fill="url(#accentLine)" rx="1"/>

  <text x="600" y="214"
    font-family="'Segoe UI',Arial,sans-serif"
    font-size="20" font-weight="400"
    text-anchor="middle"
    fill="#6ab0d4"
    letter-spacing="1.8">Lead QA Automation Engineer  |  AI Automation Enthusiast</text>
</svg>
